<?xml version="1.0" standalone="no"?>
<!DOCTYPE svg PUBLIC "-//W3C//DTD SVG 1.0//EN" "http://www.w3.org/TR/2001/REC-SVG-20010904/DTD/svg10.dtd">
<svg xmlns="http://www.w3.org/2000/svg" xmlns:xlink="http://www.w3.org/1999/xlink" id="body_1" width="190" height="50">

<g transform="matrix(0.059836026 0 0 0.059836026 0.39823973 -0)">
	<g transform="matrix(8.101688 0 0 8.101688 81.016884 81.016884)">
		<g transform="matrix(1.829959 0 0 1.829959 -38.638992 -49.971584)">
			<g>
                <path d="M38.506 72.068L37.968002 71.224C 38.052002 71.171 46.375 65.828 48.056004 61.905L48.056004 61.905L48.975002 62.3C 47.173 66.504 38.859 71.843 38.506 72.068z" stroke="none" fill="#FF006C" fill-rule="nonzero" />
			</g>
			<g>
                <path d="M35.541 70.617L35.063 69.738C 38.822998 67.693 40.864 65.562 40.811 63.739C 40.767002 62.224 39.341 61.438 38.905003 61.232998L38.905003 61.232998L39.331 60.329C 40.842003 61.038998 41.769 62.303997 41.81 63.71C 41.856 65.28 40.806 67.753 35.541 70.617z" stroke="none" fill="#FF006C" fill-rule="nonzero" />
			</g>
			<g>
                <path d="M38.25 65.716C 36.174 65.716 33.807 65.312004 32.548 64.142006C 31.811 63.456005 31.527 62.565006 31.727001 61.564007L31.727001 61.564007L32.707 61.759007C 32.575 62.420006 32.746002 62.960007 33.228 63.408005C 34.857002 64.922005 39.212 64.91801 41.04 64.411L41.04 64.411L41.308002 65.374C 40.573 65.578 39.46 65.716 38.25 65.716z" stroke="none" fill="#FF006C" fill-rule="nonzero" />
			</g>
			<g>
                <path d="M31.896 61.644C 29.624 61.644 26.927 61.088 24.874 59.632C 22.568 57.998 21.432001 55.493 21.587 52.387C 21.721 49.72 22.82 47.705 24.855 46.401C 28.578 44.013 34.6 44.780003 36.368 45.487C 38.841 46.473 41.284 45.131 42.219 44.507L42.219 44.507L42.774002 45.339C 40.519 46.841 38.048004 47.235 35.998 46.416C 34.417 45.784 28.766 45.081 25.396 47.243C 23.649 48.363 22.704 50.111 22.587 52.438C 22.447 55.224 23.411 57.371 25.453 58.817C 28.578 61.031002 33.237 60.88 34.967 60.172L34.967 60.172L35.344997 61.098C 34.517 61.436 33.286 61.644 31.896 61.644z" stroke="none" fill="#FF006C" fill-rule="nonzero" />
			</g>
			<g>
                <path d="M33.871 46.009L33.794 45.011997C 34.677 44.943996 35.767 44.392998 36.141 43.472996C 36.528 42.520996 36.107998 41.308994 34.927 39.966995L34.927 39.966995L35.677998 39.306995C 37.508 41.385994 37.443996 42.924995 37.067997 43.848995C 36.516 45.207 35.023 45.92 33.871 46.009z" stroke="none" fill="#FF006C" fill-rule="nonzero" />
			</g>
			<g>
                <path d="M21.615 51.257C 20.572 48.317 21.198 44.79 23.136 42.68C 24.692999 40.986 26.921 40.412 29.407 41.062L29.407 41.062L29.154 42.03C 26.445 41.32 24.786999 42.36 23.873 43.357C 22.200998 45.177 21.647999 48.358997 22.557999 50.922997L22.557999 50.922997L21.615 51.257z" stroke="none" fill="#FF006C" fill-rule="nonzero" />
			</g>
			<g>
                <path d="M26.109 41.399L25.109 41.399C 25.109 39.396 26.88 36.93 29.731998 34.964996C 34.277 31.833996 39.828 31.044996 44.583 32.855995L44.583 32.855995L44.227 33.790997C 39.780003 32.096996 34.573 32.843998 30.301003 35.788998C 27.793 37.516 26.109 39.771 26.109 41.399z" stroke="none" fill="#FF006C" fill-rule="nonzero" />
			</g>
			<g>
                <path d="M39.693 32.408L38.839 31.888C 40.045002 29.907001 42.583 28.366001 45.305 27.963001C 48.387 27.506 51.472 28.495 53.989 30.748001L53.989 30.748001L53.322998 31.493002C 50.384 28.865002 47.419 28.660002 45.450996 28.952002C 43.011 29.314 40.75 30.67 39.693 32.408z" stroke="none" fill="#FF006C" fill-rule="nonzero" />
			</g>
			<g>
                <path d="M66.378 39.287C 65.443 34.244 63.091 31.026999 59.753 30.23C 56.797997 29.525 53.524 30.857 51.408997 33.626L51.408997 33.626L50.614 33.02C 52.968 29.937 56.648 28.460001 59.983997 29.257C 62.154 29.775 65.998 31.743 67.36 39.105L67.36 39.105L66.378 39.287z" stroke="none" fill="#FF006C" fill-rule="nonzero" />
			</g>
			<g>
                <path d="M64.364 58.836C 62.760998 58.836 61.03 58.719997 59.171997 58.487L59.171997 58.487L59.296997 57.495C 66.222 58.361 71.272995 57.583 74.305 55.183C 76.332 53.579 77.484 51.260998 77.826004 48.099C 78.134 45.252 77.131004 42.251 75.142006 40.072998C 73.630005 38.417 70.84701 36.463997 66.130005 36.463997C 66.038 36.463997 65.94401 36.464996 65.850006 36.465996L65.850006 36.465996L65.83401 35.465996C 71.063 35.401997 74.200005 37.556995 75.880005 39.398994C 78.059006 41.785995 79.157005 45.078995 78.81901 48.206993C 78.44701 51.649994 77.173004 54.187992 74.92401 55.967995C 72.513 57.877 68.973 58.836 64.364 58.836z" stroke="none" fill="#FF006C" fill-rule="nonzero" />
			</g>
			<g>
                <path d="M50.713 62.652C 46.797 62.653 43.116 61.107002 41.079002 58.599C 38.564003 55.503 35.005 54.284 31.316002 55.244L31.316002 55.244L31.064001 54.277C 35.148003 53.211 39.082 54.556 41.856003 57.968002C 43.703003 60.241 47.235004 61.653004 50.852005 61.652C 53.936005 61.621002 56.526005 60.549 57.959003 58.712C 60.161003 55.889 60.386 52.738003 58.575005 50.068C 56.392006 46.848 52.068005 45.414 48.068005 46.578L48.068005 46.578L47.789005 45.618C 52.205006 44.332 56.980003 45.933 59.402004 49.507C 61.442005 52.515 61.197002 56.187 58.748005 59.327C 57.126003 61.406 54.251003 62.618 50.862003 62.652C 50.812 62.652 50.762 62.652 50.713 62.652z" stroke="none" fill="#FF006C" fill-rule="nonzero" />
			</g>
			<g>
                <path d="M28.668 57.532L28.130999 56.688C 29.727 55.672 30.609999 54.607 30.684998 53.606C 30.760998 52.598 30.014997 51.936 29.982998 51.909L29.982998 51.909L30.632998 51.149002C 30.679998 51.189003 31.787998 52.149002 31.683998 53.664C 31.589 55.017 30.575 56.318 28.668 57.532z" stroke="none" fill="#FF006C" fill-rule="nonzero" />
			</g>
			<g>
                <path d="M43.049 53.804C 42.291 53.804 41.52 53.641003 40.813 53.304L40.813 53.304L41.243 52.402C 42.737 53.112 44.57 52.878002 45.602 51.839C 46.503002 50.933002 46.596 49.598 45.863003 48.079002L45.863003 48.079002L46.763004 47.644C 47.681004 49.546 47.516003 51.332 46.311005 52.544003C 45.49 53.367 44.288 53.804 43.049 53.804z" stroke="none" fill="#FF006C" fill-rule="nonzero" />
			</g>
			<g>
                <path d="M53.316 57.089C 52.822002 55.179 51.835003 53.757 50.462 52.978C 49.252003 52.29 47.815002 52.159 46.305 52.599L46.305 52.599L46.025 51.638C 47.799 51.121002 49.504 51.284 50.956 52.108C 52.569 53.025 53.721 54.661003 54.285 56.839L54.285 56.839L53.316 57.089z" stroke="none" fill="#FF006C" fill-rule="nonzero" />
			</g>
			<g>
                <path d="M55.825 47.505C 53.567 45.569 54.449 41.464 54.487 41.291L54.487 41.291L55.464 41.507C 55.456 41.544 54.675 45.201 56.476 46.746L56.476 46.746L55.825 47.505z" stroke="none" fill="#FF006C" fill-rule="nonzero" />
			</g>
			<g>
                <path d="M47.026 42.112L46.187 41.567C 50.449 35.010002 55.203 36.012 59.293 37.859L59.293 37.859L58.881 38.77C 54.389 36.742 50.652 36.533 47.026 42.112z" stroke="none" fill="#FF006C" fill-rule="nonzero" />
			</g>
			<g>
                <path d="M48.28 40.399L47.281998 40.343C 47.323997 39.583 47.053997 38.970997 46.482 38.524998C 45.583 37.824997 44.004997 37.633 42.643997 38.058L42.643997 38.058L42.345997 37.104C 44.024998 36.577 45.934 36.831 47.095997 37.736C 47.932 38.387 48.341 39.307 48.28 40.399z" stroke="none" fill="#FF006C" fill-rule="nonzero" />
			</g>
			<g>
                <path d="M55.467 37.638L55.364998 36.643C 55.374996 36.642002 56.381996 36.524002 56.945 35.768C 57.32 35.266003 57.43 34.572002 57.273 33.707L57.273 33.707L58.257 33.528C 58.467 34.683 58.292 35.641 57.738 36.377C 56.906 37.483 55.525 37.632 55.467 37.638z" stroke="none" fill="#FF006C" fill-rule="nonzero" />
			</g>
			<g>
                <path d="M60.022 44.5L59.62 43.585C 61.589 42.718998 62.211 41.598 62.386997 40.809998C 62.583996 39.922997 62.285995 39.185997 61.941998 38.793L61.941998 38.793L62.693996 38.135C 63.339996 38.871998 63.595997 39.98 63.362995 41.026997C 63.138 42.04 62.375 43.465 60.022 44.5z" stroke="none" fill="#FF006C" fill-rule="nonzero" />
			</g>
			<g>
                <path d="M68.542 53.34L67.546 53.246C 68.437996 43.726997 65.075 43.116997 62.373997 42.626L62.373997 42.626L62.553997 41.642C 66.077 42.282 69.443 43.713 68.542 53.34z" stroke="none" fill="#FF006C" fill-rule="nonzero" />
			</g>
			<g>
                <path d="M70.996 48.861C 69.908005 48.861 68.69 48.337 67.568 47.355L67.568 47.355L68.226 46.602C 69.45 47.672 70.75 48.097 71.705 47.739002C 72.608 47.399002 73.202 46.352 73.421005 44.711002L73.421005 44.711002L74.412 44.843002C 74.07 47.407 72.942 48.343002 72.057 48.676003C 71.725 48.8 71.368 48.861 70.996 48.861z" stroke="none" fill="#FF006C" fill-rule="nonzero" />
			</g>
		</g>
		<g transform="matrix(2.0808618 0 0 2.0808618 119.34124 -24.970343)">
            <path d="M22.6 40L10.200001 40C 6.000001 40 3.2000008 37.2 3.2000008 33.4L3.2000008 33.4L3.2000008 18.600002C 3.2000008 14.800002 6.000001 12.000002 10.200001 12.000002L10.200001 12.000002L21.800001 12.000002L21.800001 13.800002L21.000002 14.600002L10.200002 14.600002C 8.000002 14.600002 6.2000017 16.400002 6.2000017 18.600002L6.2000017 18.600002L6.2000017 33.4C 6.2000017 35.600002 8.000002 37.4 10.200002 37.4L10.200002 37.4L19.600002 37.4L19.600002 24.800001L22.600002 24.800001L22.600002 40L22.6 40zM32.8 40L29.8 40L29.8 12L42.199997 12C 46.399998 12 49.199997 14.8 49.199997 18.6L49.199997 18.6L49.199997 22.4C 49.199997 28 43.799995 28.8 43.799995 28.8L43.799995 28.8L49.999996 38.8L49.999996 40L46.999996 40L40.799995 29L32.799995 29L32.799995 40zM42.2 14.6L32.800003 14.6L32.800003 26.400002L42.200005 26.400002C 44.400005 26.400002 46.200005 24.600002 46.200005 22.400002L46.200005 22.400002L46.200005 18.600002C 46.200005 16.400002 44.400005 14.600002 42.200005 14.600002zM56 40L56 12L74.2 12L74.2 13.8L73.399994 14.6L58.999992 14.6L58.999992 24.400002L70.399994 24.400002L70.399994 27.000002L58.999992 27.000002L58.999992 37.4L74.19999 37.4L74.19999 40L55.99999 40zM81.4 32.8L79 40L76 40L76 38.8L85.8 12L89.200005 12L99.00001 38.8L99.00001 40L96.00001 40L93.600006 32.8L81.40001 32.8zM92.6 30.2L87.6 15.6L87.4 15.6L82.4 30.2L92.6 30.2zM111.8 14.6L111.8 40L108.8 40L108.8 14.6L100 14.6L100 12L120.6 12L120.6 13.8L119.799995 14.6L111.799995 14.6z" stroke="none" fill="#FFFFFF" fill-rule="nonzero" />
		</g>
		<g transform="matrix(1.0815063 0 0 1.0815063 125.675545 61.510963)">
            <path d="M3 16.4L1.8 20L0.29999995 20L0.29999995 19.4L5.2 6L6.8999996 6L11.799999 19.4L11.799999 20L10.299999 20L9.099999 16.4L2.9999995 16.4L3 16.4zM8.6 15.1L6.1000004 7.8L6.0000005 7.8L3.5000005 15.1L8.6 15.1zM21.93 6L23.43 6L23.43 18.7L30.93 18.7L30.93 20L21.93 20L21.93 6zM42.46 20L40.96 20L40.96 6L42.46 6L42.46 20zM55.79 20L54.29 20L54.29 6L60.49 6C 62.59 6 63.99 7.4 63.99 9.3L63.99 9.3L63.99 11.2C 63.99 14 61.29 14.4 61.29 14.4L61.29 14.4L64.39 19.4L64.39 20L62.89 20L59.79 14.5L55.79 14.5L55.79 20zM60.49 7.3L55.79 7.3L55.79 13.200001L60.49 13.200001C 61.59 13.200001 62.49 12.300001 62.49 11.200001L62.49 11.200001L62.49 9.300001C 62.49 8.200001 61.59 7.300001 60.49 7.300001zM75.22 20L75.22 6L84.32 6L84.32 6.9L83.92 7.3L76.72 7.3L76.72 12.200001L82.42 12.200001L82.42 13.500001L76.72 13.500001L76.72 18.7L84.32 18.7L84.32 20L75.22 20zM103.15 18.7L103.15 20L93.15 20L93.15 18.7L101.25 7.4000006L101.25 7.3000007L93.75 7.3000007L93.35 6.9000006L93.35 6.0000005L103.15 6.0000005L103.15 7.3L95.05 18.6L95.05 18.7L103.15 18.7zM114.38 16.4L113.18 20L111.68 20L111.68 19.4L116.58 6L118.28 6L123.18 19.4L123.18 20L121.68 20L120.48 16.4L114.380005 16.4zM119.98 15.1L117.48 7.8L117.380005 7.8L114.880005 15.1L119.98 15.1z" stroke="none" fill="#FFFFFF" fill-rule="nonzero" />
		</g>
	</g>
</g>
</svg>